<?xml version="1.0" encoding="iso-8859-1"?>
<!-- Uploaded to: SVG Repo, www.svgrepo.com, Generator: SVG Repo Mixer Tools -->
<svg version="1.1" id="Layer_1" xmlns="http://www.w3.org/2000/svg" xmlns:xlink="http://www.w3.org/1999/xlink" 
	 viewBox="0 0 511.999 511.999" xml:space="preserve">
<polygon style="fill:#FFF476;" points="416.2,498.07 95.8,498.07 67.939,371.304 444.06,371.304 "/>
<rect x="29.63" y="314.186" style="fill:#7BD36A;" width="452.739" height="57.115"/>
<path d="M482.369,300.257H29.63c-7.694,0-13.93,6.238-13.93,13.93v57.115c0,7.692,6.237,13.93,13.93,13.93h27.107l10.054,45.745
	c0.043,0.233,0.098,0.461,0.152,0.69l15.251,69.392c1.404,6.388,7.064,10.941,13.606,10.941h320.4
	c6.542,0,12.202-4.552,13.606-10.941l25.456-115.826h27.107c7.694,0,13.93-6.238,13.93-13.93v-57.115
	C496.299,306.495,490.063,300.257,482.369,300.257z M404.998,484.139H107.001l-9.184-41.791H256c7.694,0,13.93-6.238,13.93-13.93
	s-6.237-13.93-13.93-13.93H91.693l-6.429-29.254h341.472L404.998,484.139z M468.439,357.372H444.06H67.939H43.561v-29.254h424.878
	V357.372z"/>
<path d="M297.791,442.346c-3.678,0-7.258-1.489-9.849-4.082c-2.591-2.591-4.082-6.185-4.082-9.849c0-0.904,0.098-1.825,0.279-2.716
	c0.167-0.892,0.446-1.769,0.794-2.619c0.348-0.836,0.766-1.644,1.268-2.396c0.515-0.766,1.1-1.477,1.741-2.117
	c0.641-0.641,1.351-1.227,2.117-1.727c0.752-0.501,1.56-0.933,2.396-1.282c0.85-0.348,1.727-0.627,2.619-0.794
	c1.797-0.362,3.636-0.362,5.433,0c0.892,0.167,1.769,0.446,2.619,0.794c0.836,0.348,1.644,0.78,2.396,1.282
	c0.766,0.5,1.477,1.087,2.117,1.727c0.641,0.641,1.226,1.351,1.727,2.117c0.501,0.752,0.933,1.56,1.282,2.396
	c0.348,0.85,0.627,1.727,0.794,2.619c0.181,0.893,0.279,1.812,0.279,2.716c0,3.664-1.491,7.258-4.082,9.849
	c-0.641,0.641-1.351,1.226-2.117,1.727c-0.752,0.5-1.56,0.933-2.396,1.282c-0.85,0.348-1.727,0.627-2.619,0.793
	C299.616,442.25,298.696,442.346,297.791,442.346z"/>
<path d="M256,280.057c-0.905,0-1.825-0.096-2.716-0.279c-0.892-0.166-1.769-0.444-2.605-0.793c-0.85-0.348-1.658-0.782-2.41-1.282
	c-0.766-0.501-1.477-1.087-2.117-1.727s-1.226-1.351-1.727-2.119c-0.501-0.751-0.933-1.559-1.282-2.396
	c-0.348-0.848-0.613-1.727-0.794-2.605c-0.181-0.904-0.279-1.825-0.279-2.73c0-0.904,0.098-1.825,0.279-2.716
	c0.181-0.892,0.446-1.769,0.794-2.604c0.348-0.85,0.78-1.658,1.282-2.41c0.501-0.766,1.087-1.477,1.727-2.117
	s1.351-1.227,2.117-1.727c0.752-0.501,1.56-0.933,2.41-1.282c0.836-0.348,1.713-0.627,2.605-0.794
	c4.513-0.919,9.333,0.571,12.565,3.803c0.641,0.641,1.226,1.351,1.727,2.117c0.501,0.752,0.933,1.56,1.282,2.41
	c0.348,0.836,0.627,1.712,0.808,2.604c0.181,0.893,0.265,1.812,0.265,2.716c0,0.905-0.084,1.826-0.265,2.73
	c-0.181,0.878-0.46,1.757-0.808,2.605c-0.348,0.837-0.78,1.645-1.282,2.396c-0.501,0.768-1.087,1.478-1.727,2.119
	C263.257,278.567,259.663,280.057,256,280.057z"/>
<path style="fill:#FFF476;" d="M185.407,91.121V24.938l30.051,23.276l39.888-34.284l35.413,34.343l35.832-25.175v68.024
	c0,38.92-31.669,70.587-70.592,70.587S185.407,130.043,185.407,91.121L185.407,91.121z"/>
<path d="M397.183,280.057c-3.664,0-7.258-1.489-9.849-4.082c-0.641-0.641-1.226-1.351-1.727-2.119
	c-0.501-0.751-0.933-1.559-1.282-2.396c-0.348-0.848-0.627-1.727-0.808-2.605c-0.181-0.904-0.265-1.825-0.265-2.73
	c0-0.904,0.084-1.825,0.265-2.716c0.181-0.892,0.46-1.769,0.808-2.604c0.348-0.85,0.78-1.658,1.282-2.41
	c0.501-0.766,1.087-1.477,1.727-2.117c0.641-0.641,1.351-1.227,2.117-1.727c0.752-0.501,1.56-0.933,2.396-1.282
	c0.85-0.348,1.727-0.627,2.619-0.794c1.797-0.362,3.636-0.362,5.433,0c0.892,0.167,1.769,0.446,2.605,0.794
	c0.85,0.348,1.658,0.78,2.41,1.282c0.766,0.5,1.477,1.087,2.117,1.727c0.641,0.641,1.226,1.351,1.727,2.117
	c0.501,0.752,0.933,1.56,1.282,2.41c0.348,0.836,0.613,1.712,0.794,2.604c0.181,0.893,0.279,1.812,0.279,2.716
	c0,0.905-0.098,1.826-0.279,2.73c-0.181,0.878-0.446,1.757-0.794,2.605c-0.348,0.837-0.78,1.645-1.282,2.396
	c-0.501,0.768-1.087,1.478-1.727,2.119c-0.641,0.641-1.351,1.226-2.117,1.727c-0.752,0.5-1.56,0.933-2.41,1.282
	c-0.836,0.348-1.713,0.627-2.605,0.793C399.008,279.96,398.09,280.057,397.183,280.057z"/>
<path style="fill:#EB87BF;" d="M326.591,91.121V24.938l30.051,23.276L396.53,13.93l35.413,34.343l35.832-25.175v68.024
	c0,38.92-31.669,70.587-70.592,70.587C358.262,161.709,326.591,130.043,326.591,91.121L326.591,91.121z"/>
<path d="M114.815,280.057c-0.905,0-1.825-0.096-2.716-0.279c-0.892-0.166-1.769-0.444-2.605-0.793
	c-0.85-0.348-1.658-0.782-2.41-1.282c-0.766-0.501-1.477-1.087-2.117-1.727s-1.226-1.351-1.727-2.119
	c-0.501-0.751-0.933-1.559-1.282-2.396c-0.348-0.848-0.613-1.727-0.794-2.605c-0.181-0.904-0.279-1.825-0.279-2.73
	c0-0.904,0.098-1.825,0.279-2.716c0.181-0.892,0.446-1.769,0.794-2.604c0.348-0.85,0.78-1.658,1.282-2.41
	c0.501-0.766,1.087-1.477,1.727-2.117s1.351-1.227,2.117-1.727c0.752-0.501,1.56-0.933,2.41-1.282
	c0.836-0.348,1.713-0.627,2.605-0.794c1.797-0.362,3.65-0.362,5.447,0c0.878,0.167,1.755,0.446,2.605,0.794
	c0.836,0.348,1.644,0.78,2.396,1.282c0.766,0.5,1.477,1.087,2.117,1.727s1.226,1.351,1.727,2.117c0.501,0.752,0.933,1.56,1.282,2.41
	c0.348,0.836,0.627,1.712,0.808,2.604c0.181,0.893,0.265,1.812,0.265,2.716c0,0.905-0.084,1.826-0.265,2.73
	c-0.181,0.878-0.46,1.757-0.808,2.605c-0.348,0.837-0.78,1.645-1.282,2.396c-0.501,0.768-1.087,1.478-1.727,2.119
	C122.073,278.567,118.477,280.057,114.815,280.057z"/>
<path style="fill:#EB87BF;" d="M44.224,91.121V24.938l30.051,23.276l39.888-34.284l35.413,34.343l35.832-25.175v68.024
	c0,38.92-31.669,70.587-70.592,70.587S44.224,130.043,44.224,91.121L44.224,91.121z"/>
<path d="M474.197,10.736c-4.612-2.396-10.176-2.024-14.431,0.963l-26.401,18.547L406.228,3.931
	c-5.172-5.015-13.316-5.262-18.778-0.564L356.183,30.24l-17.102-13.248c-1.287-2.631-3.371-4.855-6.067-6.255
	c-4.611-2.396-10.176-2.024-14.431,0.963l-26.401,18.547L265.043,3.931c-5.171-5.015-13.315-5.259-18.777-0.564L215,30.24
	l-17.102-13.248c-1.287-2.631-3.371-4.855-6.067-6.255C187.22,8.341,181.653,8.713,177.4,11.7l-26.401,18.547L123.86,3.931
	c-5.171-5.015-13.315-5.259-18.777-0.564L73.816,30.238L52.754,13.924c-4.203-3.254-9.889-3.834-14.663-1.493
	c-4.773,2.34-7.797,7.192-7.797,12.508v66.183c0,41.857,30.594,76.686,70.591,83.348v49.867c0,7.692,6.237,13.93,13.93,13.93
	s13.93-6.238,13.93-13.93v-49.867c23.63-3.937,43.967-17.7,56.662-36.945c12.695,19.243,33.032,33.008,56.662,36.945v49.867
	c0,7.692,6.237,13.93,13.93,13.93c7.694,0,13.93-6.238,13.93-13.93v-49.867c23.63-3.937,43.967-17.7,56.662-36.945
	c12.695,19.243,33.032,33.008,56.662,36.945v49.867c0,7.692,6.237,13.93,13.93,13.93s13.93-6.238,13.93-13.93v-49.867
	c39.998-6.663,70.591-41.492,70.591-83.348V23.097C481.706,17.9,478.81,13.133,474.197,10.736z M114.815,147.777
	c-31.243,0-56.661-25.416-56.661-56.656V53.347l7.589,5.88c5.232,4.05,12.593,3.862,17.611-0.449l30.242-25.993l26.283,25.487
	c4.8,4.657,12.234,5.243,17.706,1.399l13.894-9.761v41.212C171.477,122.361,146.058,147.777,114.815,147.777z M256,147.777
	c-31.243,0-56.662-25.416-56.662-56.656V53.347l7.591,5.88c5.232,4.05,12.593,3.862,17.611-0.449l30.242-25.993l26.283,25.487
	c4.8,4.657,12.234,5.243,17.706,1.399l13.894-9.761v41.212C312.66,122.361,287.243,147.777,256,147.777z M453.845,91.121
	c0,31.24-25.419,56.656-56.661,56.656c-31.243,0-56.662-25.416-56.662-56.656V53.347l7.589,5.88
	c5.232,4.05,12.593,3.862,17.611-0.449l30.242-25.993l26.281,25.487c4.8,4.657,12.235,5.243,17.706,1.399l13.894-9.761
	L453.845,91.121L453.845,91.121z"/>
</svg>