<?xml version="1.0" encoding="iso-8859-1"?>
<!-- Uploaded to: SVG Repo, www.svgrepo.com, Generator: SVG Repo Mixer Tools -->
<svg height="800px" width="800px" version="1.1" id="Layer_1" xmlns="http://www.w3.org/2000/svg" xmlns:xlink="http://www.w3.org/1999/xlink" 
	 viewBox="0 0 512 512" xml:space="preserve">
<path d="M256,512c-3.705,0-7.34-1.495-9.961-4.13c-2.621-2.619-4.128-6.241-4.128-9.96c0-3.707,1.508-7.34,4.128-9.961
	c3.269-3.269,8.129-4.762,12.708-3.846c0.902,0.183,1.789,0.451,2.635,0.803c0.859,0.352,1.677,0.789,2.437,1.296
	c0.775,0.507,1.493,1.099,2.142,1.747c2.621,2.621,4.128,6.254,4.128,9.961c0,3.72-1.508,7.34-4.128,9.96
	c-0.648,0.648-1.367,1.24-2.142,1.761c-0.761,0.507-1.578,0.944-2.437,1.296c-0.845,0.352-1.733,0.62-2.635,0.803
	C257.846,511.915,256.915,512,256,512z"/>
<path style="fill:#7BD36A;" d="M337.305,353.508c-19.316,53.023-69.883,83.289-69.883,83.289s-19.248-55.701,0.068-108.724
	s69.883-83.289,69.883-83.289S356.623,300.485,337.305,353.508z"/>
<path style="fill:#00D7DF;" d="M197.042,376.721c14.031,38.191,50.549,59.914,50.549,59.914s13.769-40.197-0.262-78.389
	s-50.549-59.914-50.549-59.914S183.011,338.53,197.042,376.721z"/>
<g>
	<ellipse style="fill:#EB87BF;" cx="255.997" cy="101.271" rx="62.939" ry="87.18"/>
	<path style="fill:#EB87BF;" d="M193.06,101.271c0-27.994,9.535-52.886,24.34-68.836c-18.723-10.949-38.811-16.112-56.565-13.062
		c-38.587,6.639-51.533,49.506-28.904,95.749c22.627,46.243,72.264,78.348,110.86,71.716c0.217-0.037,0.421-0.09,0.637-0.131
		C214.693,178.636,193.06,143.455,193.06,101.271z"/>
	<path style="fill:#EB87BF;" d="M351.162,19.372c-17.754-3.05-37.84,2.113-56.563,13.062c14.805,15.95,24.34,40.843,24.34,68.836
		c0,42.184-21.632,77.367-50.367,85.437c0.214,0.039,0.418,0.093,0.635,0.13c38.593,6.632,88.233-25.473,110.862-71.716
		C402.698,68.879,389.749,26.011,351.162,19.372z"/>
</g>
<path d="M397.63,37.28c-8.751-17.115-24.406-28.406-44.08-31.792c-0.001,0-0.001,0-0.003,0c-17.466-3.004-37.244,0.471-56.601,9.769
	C284.859,5.313,270.811,0,256,0c-14.81,0-28.86,5.313-40.947,15.257C195.696,5.96,175.914,2.49,158.446,5.488
	c-19.674,3.386-35.327,14.677-44.078,31.791c-11.76,23-9.971,53.63,4.907,84.035c23.191,47.397,70.824,80.496,113.008,80.492
	c3.243,0,6.458-0.196,9.626-0.596v119.345c-17.041-21.703-36.758-33.636-37.928-34.332c-3.648-2.17-8.077-2.577-12.062-1.116
	c-3.983,1.464-7.095,4.645-8.47,8.659c-0.628,1.834-15.211,45.415,0.366,87.811c15.577,42.398,54.905,66.173,56.572,67.165
	c0.493,0.293,1.003,0.542,1.522,0.771v6.134c0,7.78,6.308,14.089,14.089,14.089s14.089-6.309,14.089-14.089V450.6
	c1.593-0.307,3.145-0.861,4.569-1.715c2.24-1.34,55.097-33.491,75.886-90.555c20.788-57.066,0.997-115.679,0.147-118.148
	c-1.386-4.011-4.507-7.184-8.494-8.635c-3.987-1.457-8.417-1.03-12.059,1.148c-1.788,1.069-35.812,21.786-60.049,59.116v-90.607
	c3.152,0.395,6.347,0.59,9.576,0.59c42.243,0,89.87-33.097,113.057-80.481C407.603,90.91,409.392,60.28,397.63,37.28z
	 M238.488,411.944c-9.895-9.017-21.814-22.642-28.22-40.081c-6.368-17.334-6.085-35.503-4.383-48.838
	c9.895,9.017,21.814,22.642,28.22,40.081C240.473,380.438,240.19,398.609,238.488,411.944z M280.728,332.896
	c10.795-29.633,32.833-51.79,47.979-64.322c3.536,19.344,6.157,50.481-4.638,80.112c-10.805,29.659-32.873,51.828-48.02,64.356
	C272.496,393.762,269.871,362.698,280.728,332.896z M303.125,82.452c0.062,0.338,0.131,0.673,0.19,1.013
	c0.124,0.71,0.231,1.43,0.341,2.147c0.094,0.623,0.189,1.247,0.272,1.874c0.082,0.61,0.155,1.224,0.227,1.84
	c0.086,0.757,0.165,1.515,0.235,2.275c0.051,0.541,0.101,1.083,0.144,1.627c0.068,0.885,0.12,1.774,0.165,2.664
	c0.023,0.444,0.054,0.885,0.07,1.331c0.052,1.344,0.083,2.692,0.083,4.045c0,1.158-0.023,2.311-0.061,3.459
	c-0.015,0.449-0.042,0.896-0.062,1.344c-0.031,0.681-0.063,1.362-0.107,2.039c-0.038,0.572-0.086,1.141-0.132,1.71
	c-0.044,0.531-0.089,1.064-0.139,1.592c-0.063,0.648-0.134,1.295-0.21,1.939c-0.049,0.424-0.101,0.847-0.156,1.268
	c-0.093,0.717-0.192,1.433-0.299,2.144c-0.047,0.31-0.097,0.619-0.147,0.927c-0.128,0.8-0.261,1.599-0.409,2.391
	c-0.025,0.141-0.055,0.28-0.082,0.42c-0.742,3.913-1.702,7.717-2.863,11.37c-0.011,0.034-0.021,0.07-0.032,0.104
	c-0.245,0.766-0.503,1.523-0.765,2.277c-0.087,0.248-0.171,0.499-0.259,0.747c-0.227,0.635-0.464,1.262-0.703,1.888
	c-0.145,0.378-0.29,0.755-0.44,1.129c-0.206,0.518-0.417,1.031-0.631,1.541c-0.214,0.507-0.433,1.012-0.655,1.512
	c-0.168,0.379-0.335,0.757-0.507,1.13c-0.328,0.71-0.665,1.412-1.009,2.105c-0.08,0.162-0.158,0.327-0.24,0.487
	c-6.208,12.28-14.906,21.673-24.849,26.327v-41.794c0-7.78-6.308-14.089-14.089-14.089s-14.089,6.309-14.089,14.089v41.797
	c-9.944-4.655-18.641-14.047-24.85-26.328c-0.08-0.159-0.158-0.323-0.238-0.485c-0.345-0.695-0.682-1.398-1.012-2.111
	c-0.17-0.371-0.338-0.745-0.504-1.121c-0.224-0.503-0.442-1.009-0.658-1.52c-0.214-0.509-0.424-1.021-0.63-1.539
	c-0.149-0.375-0.296-0.752-0.441-1.13c-0.238-0.624-0.475-1.25-0.702-1.884c-0.09-0.251-0.175-0.504-0.263-0.757
	c-0.261-0.752-0.52-1.506-0.764-2.271c-0.011-0.034-0.021-0.07-0.032-0.104c-1.161-3.653-2.12-7.456-2.863-11.37
	c-0.027-0.141-0.056-0.279-0.082-0.42c-0.147-0.792-0.279-1.591-0.409-2.391c-0.049-0.309-0.1-0.617-0.147-0.927
	c-0.107-0.711-0.206-1.427-0.299-2.144c-0.055-0.421-0.107-0.844-0.156-1.268c-0.076-0.645-0.147-1.291-0.21-1.939
	c-0.052-0.528-0.096-1.061-0.139-1.592c-0.047-0.569-0.094-1.138-0.132-1.71c-0.044-0.676-0.076-1.358-0.107-2.039
	c-0.021-0.448-0.048-0.895-0.062-1.344c-0.038-1.147-0.061-2.299-0.061-3.459c0-1.353,0.031-2.701,0.083-4.045
	c0.017-0.445,0.048-0.888,0.07-1.331c0.045-0.89,0.097-1.779,0.165-2.664c0.042-0.545,0.093-1.086,0.144-1.627
	c0.07-0.761,0.148-1.52,0.235-2.275c0.07-0.616,0.145-1.23,0.227-1.84c0.083-0.627,0.178-1.251,0.272-1.874
	c0.11-0.719,0.217-1.438,0.341-2.147c0.059-0.34,0.128-0.675,0.19-1.013c5.7-30.848,24.964-54.274,47.115-54.274
	S297.414,51.604,303.125,82.452z M144.586,108.928c-10.78-22.03-12.698-44.02-5.13-58.823c4.747-9.283,12.742-14.95,23.764-16.848
	c2.584-0.444,5.269-0.664,8.038-0.664c7.729,0,16.1,1.712,24.67,5.027c-0.066,0.108-0.128,0.223-0.194,0.333
	c-0.444,0.73-0.872,1.471-1.299,2.216c-0.268,0.468-0.535,0.936-0.797,1.409c-0.404,0.731-0.799,1.469-1.186,2.213
	c-0.259,0.496-0.513,0.995-0.765,1.496c-0.378,0.752-0.75,1.506-1.11,2.27c-0.235,0.499-0.464,1.002-0.693,1.506
	c-0.358,0.788-0.714,1.575-1.055,2.374c-0.201,0.472-0.393,0.951-0.589,1.427c-0.348,0.847-0.697,1.692-1.026,2.55
	c-0.137,0.356-0.262,0.721-0.396,1.081c-1.175,3.157-2.22,6.394-3.138,9.696c-0.118,0.427-0.245,0.85-0.359,1.279
	c-0.23,0.865-0.441,1.74-0.652,2.615c-0.138,0.569-0.282,1.137-0.411,1.71c-0.187,0.823-0.361,1.651-0.533,2.482
	c-0.132,0.641-0.265,1.282-0.389,1.927c-0.152,0.793-0.293,1.589-0.43,2.387c-0.121,0.704-0.237,1.409-0.347,2.116
	c-0.117,0.759-0.23,1.522-0.335,2.285c-0.106,0.766-0.2,1.537-0.292,2.309c-0.086,0.723-0.172,1.446-0.247,2.173
	c-0.087,0.847-0.158,1.698-0.23,2.55c-0.055,0.664-0.116,1.324-0.161,1.989c-0.068,0.986-0.114,1.978-0.159,2.97
	c-0.025,0.545-0.061,1.086-0.079,1.633c-0.052,1.546-0.083,3.095-0.083,4.652c0,1.557,0.031,3.105,0.083,4.647
	c0.013,0.38,0.037,0.757,0.052,1.136c0.051,1.205,0.113,2.406,0.193,3.6c0.024,0.338,0.052,0.675,0.077,1.012
	c0.099,1.306,0.216,2.605,0.351,3.897c0.02,0.18,0.038,0.359,0.058,0.54c1.853,17.031,6.846,32.726,14.31,45.935
	C174.203,150.551,155.607,131.451,144.586,108.928z M367.414,108.928c-11.018,22.514-29.6,41.608-49.5,53.09
	c7.457-13.201,12.446-28.888,14.299-45.906c0.021-0.187,0.041-0.375,0.061-0.562c0.134-1.285,0.251-2.578,0.348-3.877
	c0.025-0.341,0.055-0.682,0.077-1.023c0.08-1.191,0.142-2.39,0.193-3.591c0.016-0.382,0.039-0.762,0.052-1.144
	c0.051-1.54,0.083-3.087,0.083-4.644c0-1.555-0.031-3.107-0.083-4.652c-0.018-0.547-0.054-1.088-0.079-1.633
	c-0.047-0.992-0.093-1.984-0.159-2.97c-0.045-0.665-0.106-1.326-0.161-1.989c-0.07-0.852-0.142-1.703-0.23-2.55
	c-0.075-0.727-0.161-1.45-0.247-2.173c-0.092-0.772-0.187-1.541-0.292-2.309c-0.104-0.764-0.217-1.526-0.335-2.285
	c-0.11-0.707-0.225-1.413-0.347-2.116c-0.137-0.797-0.279-1.593-0.43-2.387c-0.124-0.645-0.256-1.285-0.389-1.925
	c-0.172-0.831-0.345-1.663-0.534-2.487c-0.13-0.569-0.272-1.133-0.409-1.699c-0.213-0.879-0.424-1.758-0.657-2.628
	c-0.113-0.423-0.237-0.837-0.354-1.258c-0.923-3.328-1.978-6.587-3.162-9.767c-0.127-0.34-0.245-0.683-0.375-1.021
	c-0.334-0.871-0.686-1.726-1.04-2.584c-0.192-0.465-0.378-0.933-0.575-1.393c-0.345-0.809-0.706-1.606-1.068-2.402
	c-0.224-0.493-0.448-0.985-0.678-1.472c-0.366-0.773-0.742-1.539-1.126-2.301c-0.245-0.489-0.495-0.975-0.747-1.46
	c-0.395-0.755-0.795-1.505-1.205-2.247c-0.254-0.458-0.513-0.91-0.772-1.364c-0.435-0.761-0.874-1.517-1.326-2.261
	c-0.063-0.103-0.121-0.211-0.185-0.314c11.639-4.506,22.906-6.051,32.702-4.365c11.026,1.898,19.023,7.566,23.77,16.849
	C380.111,64.91,378.194,86.9,367.414,108.928z"/>
<path d="M256,101.149c-0.916,0-1.846-0.099-2.747-0.282c-0.902-0.183-1.789-0.451-2.635-0.803c-0.859-0.352-1.677-0.789-2.437-1.296
	c-0.775-0.506-1.493-1.098-2.142-1.746s-1.24-1.368-1.747-2.143c-0.507-0.761-0.944-1.578-1.296-2.436
	c-0.352-0.847-0.634-1.733-0.803-2.635c-0.183-0.903-0.282-1.832-0.282-2.747c0-0.916,0.099-1.847,0.282-2.761
	c0.169-0.888,0.451-1.775,0.803-2.635c0.352-0.845,0.789-1.663,1.296-2.423c0.507-0.775,1.099-1.495,1.747-2.143
	c0.648-0.662,1.367-1.24,2.142-1.761c0.761-0.506,1.578-0.944,2.437-1.296c0.845-0.352,1.733-0.619,2.635-0.803
	c4.565-0.914,9.44,0.578,12.708,3.86c0.648,0.648,1.24,1.368,1.747,2.143c0.507,0.761,0.944,1.578,1.296,2.423
	c0.352,0.859,0.634,1.747,0.803,2.635c0.183,0.914,0.282,1.846,0.282,2.761c0,0.916-0.099,1.846-0.282,2.747
	c-0.169,0.902-0.451,1.789-0.803,2.635c-0.352,0.858-0.789,1.675-1.296,2.436c-0.507,0.775-1.099,1.495-1.747,2.143
	c-0.648,0.648-1.367,1.24-2.142,1.746c-0.761,0.507-1.578,0.944-2.437,1.296c-0.845,0.352-1.733,0.62-2.635,0.803
	C257.846,101.051,256.915,101.149,256,101.149z"/>
</svg>